<?xml version="1.0" encoding="iso-8859-1"?>
<!-- Generator: Adobe Illustrator 19.0.0, SVG Export Plug-In . SVG Version: 6.00 Build 0)  -->
<svg version="1.1" id="Capa_1" xmlns="http://www.w3.org/2000/svg" xmlns:xlink="http://www.w3.org/1999/xlink" x="0px" y="0px"
	 viewBox="0 0 512 512" style="enable-background:new 0 0 512 512;" xml:space="preserve">
<circle style="fill:#FF4E0A;" cx="256" cy="256" r="256"/>
<path style="fill:#BB1000;" d="M510.473,283.973l-190.67-190.67C299.501,72.079,277.38,58,256,58
	c-55.624,0-116.275,95.236-136.81,163.914c-18.588,62.166-18.249,147.751,32.96,195.071c0,0,56.81,56.886,94.762,94.837
	C249.93,511.928,252.956,512,256,512C387.931,512,496.536,412.196,510.473,283.973z"/>
<path style="fill:#FFFFFF;" d="M392.81,221.914C372.275,153.236,311.624,58,256,58s-116.275,95.236-136.81,163.914
	C92.183,312.235,105.122,452,256,452S419.817,312.235,392.81,221.914z"/>
<path style="fill:#FFEE93;" d="M256,452V58c55.62,0,116.27,95.24,136.81,163.91C419.82,312.23,406.88,452,256,452z"/>
<g>
	<path style="fill:#00AF95;" d="M387.07,204.83c-6.22,3.89-13.58,6.14-21.46,6.14c-22.37,0-40.51-18.14-40.51-40.51
		c0-17.09,10.58-31.71,25.55-37.67C365.65,155.74,378.32,181.19,387.07,204.83z"/>
	<circle style="fill:#00AF95;" cx="307.28" cy="272.88" r="22.698"/>
</g>
<circle style="fill:#00EFD1;" cx="180.63" cy="334.52" r="34.27"/>
<path style="fill:#00AF95;" d="M375.18,399.76c-15.22,20.85-37.22,37.21-67.71,45.74c-13.68-7.85-22.89-22.6-22.89-39.5
	c0-25.14,20.38-45.52,45.52-45.52C353.12,360.48,372.15,377.57,375.18,399.76z"/>
<path style="fill:#00EFD1;" d="M223.62,136.31c0,28.55-23.14,51.69-51.69,51.69c-13.16,0-25.17-4.91-34.29-13.02
	c14.97-31.2,35.28-62.46,57.6-84.8C212.08,98.69,223.62,116.16,223.62,136.31z"/>
<g>
</g>
<g>
</g>
<g>
</g>
<g>
</g>
<g>
</g>
<g>
</g>
<g>
</g>
<g>
</g>
<g>
</g>
<g>
</g>
<g>
</g>
<g>
</g>
<g>
</g>
<g>
</g>
<g>
</g>
</svg>
